# xmcd CD database file
#
# Track frame offsets:
#	150
#	21882
#	38450
#	52547
#	73665
#	92492
#	102985
#	130737
#	153832
#	178095
#	205582
#	222597
#
# Disc length: 3178 seconds
#
# Revision: 2
# Processed by: cddbd v1.4PL0 Copyright (c) Steve Scherf et al.
# Submitted via: CDex 1.50beta10
#
DISCID=940c680c
DTITLE=J.B. Hutto - Slideslinger
DYEAR=1992
DGENRE=Blues
TTITLE0=I Feel So Good
TTITLE1=Lula Belle's Here
TTITLE2=Leave Your Love In Greater Hands
TTITLE3=That's The Truth
TTITLE4=My Heart Is Achin' To Love You
TTITLE5=J.B.'s Crawl
TTITLE6=Please Help
TTITLE7=Angel Face
TTITLE8=Tell Me Mama
TTITLE9=Lone Wolf
TTITLE10=Look At The Yonder Wall
TTITLE11=Combination Boogie
EXTD=YEAR: 1992
EXTT0=
EXTT1=
EXTT2=
EXTT3=
EXTT4=
EXTT5=
EXTT6=
EXTT7=
EXTT8=
EXTT9=
EXTT10=
EXTT11=
PLAYORDER=
